<?xml version="1.0" encoding="UTF-8" standalone="no"?>
<!DOCTYPE svg PUBLIC "-//W3C//DTD SVG 1.1//EN"
 "http://www.w3.org/Graphics/SVG/1.1/DTD/svg11.dtd">
<!-- Generated by graphviz version 2.47.0 (20210316.0004)
 -->
<!-- Title: G Pages: 1 -->
<svg width="541pt" height="148pt"
 viewBox="0.00 0.00 541.20 148.20" xmlns="http://www.w3.org/2000/svg" xmlns:xlink="http://www.w3.org/1999/xlink">
<g id="graph0" class="graph" transform="scale(1 1) rotate(0) translate(21.6 126.6)">
<title>G</title>
<polygon fill="#111111" stroke="transparent" points="-21.6,21.6 -21.6,-126.6 519.6,-126.6 519.6,21.6 -21.6,21.6"/>
<!-- App.tsx -->
<g id="node1" class="node">
<title>App.tsx</title>
<path fill="none" stroke="#cfffac" d="M223.33,-105C223.33,-105 176.67,-105 176.67,-105 172.83,-105 169,-101.17 169,-97.33 169,-97.33 169,-89.67 169,-89.67 169,-85.83 172.83,-82 176.67,-82 176.67,-82 223.33,-82 223.33,-82 227.17,-82 231,-85.83 231,-89.67 231,-89.67 231,-97.33 231,-97.33 231,-101.17 227.17,-105 223.33,-105"/>
<text text-anchor="middle" x="200" y="-89.8" font-family="Arial" font-size="14.00" fill="#cfffac">App.tsx</text>
</g>
<!-- contexts/ChargesProvider.tsx -->
<g id="node2" class="node">
<title>contexts/ChargesProvider.tsx</title>
<path fill="none" stroke="#cfffac" d="M288.33,-64C288.33,-64 111.67,-64 111.67,-64 107.83,-64 104,-60.17 104,-56.33 104,-56.33 104,-48.67 104,-48.67 104,-44.83 107.83,-41 111.67,-41 111.67,-41 288.33,-41 288.33,-41 292.17,-41 296,-44.83 296,-48.67 296,-48.67 296,-56.33 296,-56.33 296,-60.17 292.17,-64 288.33,-64"/>
<text text-anchor="middle" x="200" y="-48.8" font-family="Arial" font-size="14.00" fill="#cfffac">contexts/ChargesProvider.tsx</text>
</g>
<!-- contexts/FilesProvider.tsx -->
<g id="node3" class="node">
<title>contexts/FilesProvider.tsx</title>
<path fill="none" stroke="#c6c5fe" d="M277.33,-23C277.33,-23 122.67,-23 122.67,-23 118.83,-23 115,-19.17 115,-15.33 115,-15.33 115,-7.67 115,-7.67 115,-3.83 118.83,0 122.67,0 122.67,0 277.33,0 277.33,0 281.17,0 285,-3.83 285,-7.67 285,-7.67 285,-15.33 285,-15.33 285,-19.17 281.17,-23 277.33,-23"/>
<text text-anchor="middle" x="200" y="-7.8" font-family="Arial" font-size="14.00" fill="#c6c5fe">contexts/FilesProvider.tsx</text>
</g>
<!-- reducers/FilesReducer.ts -->
<g id="node4" class="node">
<title>reducers/FilesReducer.ts</title>
<path fill="none" stroke="#cfffac" d="M490.33,-23C490.33,-23 339.67,-23 339.67,-23 335.83,-23 332,-19.17 332,-15.33 332,-15.33 332,-7.67 332,-7.67 332,-3.83 335.83,0 339.67,0 339.67,0 490.33,0 490.33,0 494.17,0 498,-3.83 498,-7.67 498,-7.67 498,-15.33 498,-15.33 498,-19.17 494.17,-23 490.33,-23"/>
<text text-anchor="middle" x="415" y="-7.8" font-family="Arial" font-size="14.00" fill="#cfffac">reducers/FilesReducer.ts</text>
</g>
<!-- contexts/FilesProvider.tsx&#45;&gt;reducers/FilesReducer.ts -->
<g id="edge1" class="edge">
<title>contexts/FilesProvider.tsx&#45;&gt;reducers/FilesReducer.ts</title>
<path fill="none" stroke="#757575" d="M285.18,-11.5C297.17,-11.5 309.56,-11.5 321.7,-11.5"/>
<polygon fill="#757575" stroke="#757575" points="321.82,-15 331.82,-11.5 321.82,-8 321.82,-15"/>
</g>
<!-- main.tsx -->
<g id="node5" class="node">
<title>main.tsx</title>
<path fill="none" stroke="#c6c5fe" d="M60.33,-64C60.33,-64 7.67,-64 7.67,-64 3.83,-64 0,-60.17 0,-56.33 0,-56.33 0,-48.67 0,-48.67 0,-44.83 3.83,-41 7.67,-41 7.67,-41 60.33,-41 60.33,-41 64.17,-41 68,-44.83 68,-48.67 68,-48.67 68,-56.33 68,-56.33 68,-60.17 64.17,-64 60.33,-64"/>
<text text-anchor="middle" x="34" y="-48.8" font-family="Arial" font-size="14.00" fill="#c6c5fe">main.tsx</text>
</g>
<!-- main.tsx&#45;&gt;App.tsx -->
<g id="edge2" class="edge">
<title>main.tsx&#45;&gt;App.tsx</title>
<path fill="none" stroke="#757575" d="M68.17,-63.24C79.48,-66.73 92.24,-70.48 104,-73.5 121.84,-78.08 141.77,-82.4 158.75,-85.84"/>
<polygon fill="#757575" stroke="#757575" points="158.4,-89.34 168.89,-87.87 159.77,-82.48 158.4,-89.34"/>
</g>
<!-- main.tsx&#45;&gt;contexts/ChargesProvider.tsx -->
<g id="edge3" class="edge">
<title>main.tsx&#45;&gt;contexts/ChargesProvider.tsx</title>
<path fill="none" stroke="#757575" d="M68.19,-52.5C75.95,-52.5 84.64,-52.5 93.74,-52.5"/>
<polygon fill="#757575" stroke="#757575" points="93.76,-56 103.76,-52.5 93.76,-49 93.76,-56"/>
</g>
<!-- main.tsx&#45;&gt;contexts/FilesProvider.tsx -->
<g id="edge4" class="edge">
<title>main.tsx&#45;&gt;contexts/FilesProvider.tsx</title>
<path fill="none" stroke="#757575" d="M68.22,-42.4C79.53,-39.09 92.28,-35.49 104,-32.5 113.7,-30.03 123.99,-27.57 134.09,-25.26"/>
<polygon fill="#757575" stroke="#757575" points="135.12,-28.62 144.1,-23 133.57,-21.79 135.12,-28.62"/>
</g>
</g>
</svg>
